<svg width="287" height="78" viewBox="0 0 287 78" fill="none" xmlns="http://www.w3.org/2000/svg">
<g clip-path="url(#clip0_6411_2031)">
<path d="M66.5673 27.5748V11.4176H50.41L38.9924 0L27.5748 11.4176H11.4176V27.5748L0 38.9924L11.4176 50.41V66.5673H27.5748L38.9924 77.9849L50.41 66.5673H66.5673V50.41L77.9849 38.9924L66.5673 27.5748ZM13.9313 31.5119C14.6278 31.7694 15.3395 32.0268 16.021 32.2994C17.611 31.4059 19.1404 30.4217 20.5941 29.3314C19.0798 28.6197 17.5352 27.9837 15.9604 27.4083V15.9755H26.7117C27.3477 17.7169 28.0746 19.4129 28.8771 21.0786C29.9674 19.6401 30.9517 18.1409 31.8451 16.5812C31.5422 15.8695 31.2545 15.1427 30.9971 14.4158L37.3419 8.07105C33.1776 22.3203 22.0326 33.4653 7.78334 37.6296L13.9161 31.4968L13.9313 31.5119ZM9.37333 41.9301C25.0309 37.251 37.251 24.9249 41.7787 9.2219L46.5486 13.9918C41.1578 29.18 29.2708 41.1578 14.1281 46.6849L9.37333 41.9301ZM63.9022 46.6546C63.0239 46.3518 62.1456 46.0186 61.2673 45.6552C59.6774 46.5486 58.1479 47.5329 56.6942 48.6232C58.4357 49.4409 60.2073 50.1829 62.0245 50.8189V62.0093H50.7734C47.7146 53.7868 42.8538 46.3518 36.5393 40.2644C35.4188 41.2941 34.2528 42.2935 33.0565 43.2324C39.1287 48.9866 43.7624 56.0734 46.6244 63.9324L41.8695 68.6872C39.3559 60.2679 34.5708 52.6814 28.0443 46.7909C26.6966 47.654 25.3034 48.4566 23.8952 49.2137C30.3762 54.6954 35.1159 61.9487 37.5387 70.0804L30.9062 63.4479C31.1788 62.6907 31.4817 61.9487 31.7845 61.2067C30.876 59.6773 29.8765 58.1934 28.7711 56.7851C27.9534 58.4962 27.2266 60.2376 26.5754 62.0093H15.9907V50.8492C32.1177 44.8829 44.7921 32.1328 50.6826 15.9755H62.0245V26.8631C53.6203 29.8462 46.0186 34.707 39.7799 41.067C40.8247 42.1724 41.8241 43.3232 42.7781 44.5044C48.608 38.4776 55.7554 33.8893 63.675 31.1031L68.4601 35.8882C59.9953 38.2959 52.3634 42.9901 46.3821 49.4409C47.2452 50.7734 48.0629 52.1363 48.8352 53.5294C54.544 46.9726 62.1002 42.2784 70.5044 40.0373L63.9173 46.6243L63.9022 46.6546Z" fill="white"/>
<path d="M53.4686 28.7105C52.0603 29.4525 50.6672 30.2551 49.3195 31.1182C48.3352 30.2248 47.3963 29.3011 46.5029 28.332C47.3661 26.9843 48.1686 25.6063 48.9106 24.198C50.3189 25.8031 51.8483 27.3174 53.4686 28.7105Z" fill="white"/>
<path d="M44.3079 34.6617C43.1116 35.6005 41.9456 36.5999 40.825 37.6296C40.5525 37.3571 40.2648 37.0845 39.9922 36.7968C41.0219 35.6762 42.0213 34.5102 42.9602 33.314C43.3993 33.7682 43.8536 34.2225 44.3079 34.6617Z" fill="white"/>
<path d="M52.3028 40.643C50.6522 41.809 49.0623 43.081 47.5631 44.4438L47.1846 44.035C48.714 42.657 50.304 41.3699 51.9848 40.1887L52.3028 40.643Z" fill="white"/>
<path d="M62.918 34.904C60.8737 35.7066 58.89 36.6606 56.9669 37.7206L56.6943 37.236C58.6326 36.1609 60.6466 35.2069 62.706 34.3892L62.918 34.904Z" fill="white"/>
<path d="M37.7356 52.8025L37.2813 53.1206C36.1002 51.47 34.8433 49.88 33.4805 48.3809L33.8893 48.0023C35.2673 49.5317 36.5544 51.1217 37.7356 52.8025Z" fill="white"/>
<path d="M43.5501 63.5388L43.0353 63.7356C42.2327 61.6913 41.2787 59.7077 40.2188 57.7845L40.7033 57.512C41.7784 59.4502 42.7324 61.4642 43.5501 63.5236V63.5388Z" fill="white"/>
<path d="M43.4295 14.5521C42.627 16.6115 41.6881 18.6103 40.6281 20.5486L40.1436 20.276C41.1884 18.368 42.1121 16.3844 42.9147 14.3401L43.4295 14.5369V14.5521Z" fill="white"/>
<path d="M37.3872 25.7123C36.3424 27.166 35.237 28.5743 34.0407 29.9068L33.6318 29.5434C34.813 28.226 35.9032 26.8328 36.9329 25.3943L37.3872 25.7123Z" fill="white"/>
<path d="M30.043 33.9499C28.5288 35.3279 26.9236 36.615 25.2428 37.7961L24.9248 37.3418C26.5754 36.1758 28.1653 34.9039 29.6796 33.541L30.0582 33.9499H30.043Z" fill="white"/>
<path d="M20.5335 40.7641C18.5952 41.8392 16.5812 42.7932 14.5218 43.6109L14.325 43.0961C16.3692 42.2935 18.3529 41.3395 20.276 40.2795L20.5486 40.7641H20.5335Z" fill="white"/>
<path d="M94.1874 50.4403H93.0517L92.4914 48.8503H90.0383L89.4931 50.4403H88.3574L90.6894 44.2015H91.8554L94.1722 50.4403H94.1874ZM92.2188 48.0024L91.3557 45.519C91.3254 45.4432 91.2951 45.307 91.28 45.1252H91.2648C91.2345 45.2918 91.2042 45.4281 91.174 45.519L90.3108 48.0024H92.2188Z" fill="white"/>
<path d="M99.4873 44.6558L96.065 49.5772H99.4418V50.4555H94.6113V49.986L98.0487 45.095H94.8839V44.2167H99.4873V44.671V44.6558Z" fill="white"/>
<path d="M100.048 46.8818H104.788C104.742 46.2913 104.53 45.837 104.136 45.4887C103.758 45.1556 103.258 44.9739 102.668 44.9739C101.986 44.9739 101.396 45.1556 100.911 45.5038V44.5499C101.426 44.247 102.062 44.0956 102.789 44.0956C103.758 44.0956 104.515 44.3833 105.075 44.9436C105.636 45.5039 105.908 46.2913 105.908 47.2907C105.908 48.2295 105.636 49.017 105.075 49.6227C104.53 50.2435 103.788 50.5464 102.88 50.5464C101.971 50.5464 101.274 50.2284 100.79 49.6075C100.305 48.9867 100.048 48.0781 100.048 46.8667V46.8818ZM104.788 47.745H101.153C101.153 48.3355 101.32 48.805 101.638 49.1532C101.941 49.5015 102.365 49.6832 102.895 49.6832C103.425 49.6832 103.864 49.5015 104.197 49.1532C104.53 48.805 104.727 48.3355 104.772 47.745H104.788Z" fill="white"/>
<path d="M111.874 50.4403H110.663L109.663 48.7746C109.572 48.6232 109.481 48.4869 109.406 48.3809C109.315 48.2749 109.239 48.1841 109.148 48.1084C109.057 48.0326 108.967 47.9872 108.861 47.9569C108.755 47.9266 108.633 47.9115 108.512 47.9115H108.088V50.4403H107.059V44.2015H109.118C109.406 44.2015 109.678 44.2318 109.921 44.3075C110.163 44.3832 110.375 44.4892 110.572 44.6255C110.753 44.7618 110.905 44.9435 110.996 45.1555C111.102 45.3675 111.147 45.6098 111.147 45.8975C111.147 46.1247 111.117 46.3215 111.056 46.5032C110.996 46.6849 110.905 46.8515 110.784 46.9878C110.663 47.1241 110.511 47.2604 110.345 47.3512C110.178 47.4572 109.981 47.5329 109.769 47.5935C109.875 47.6692 109.981 47.7449 110.072 47.8206C110.163 47.8964 110.239 47.9721 110.314 48.0629C110.39 48.1386 110.466 48.2295 110.541 48.3355C110.617 48.4415 110.693 48.5626 110.784 48.6989L111.889 50.4555L111.874 50.4403ZM108.088 45.0344V47.0635H108.951C109.118 47.0635 109.254 47.0332 109.391 46.9878C109.527 46.9424 109.648 46.8666 109.739 46.7758C109.845 46.6849 109.921 46.5638 109.966 46.4427C110.011 46.3215 110.042 46.1549 110.042 45.9884C110.042 45.6855 109.951 45.4584 109.754 45.2918C109.572 45.1252 109.3 45.0344 108.936 45.0344H108.058H108.088Z" fill="white"/>
<path d="M112.601 50.4403V44.2015H114.584C115.19 44.2015 115.659 44.3378 116.023 44.5952C116.386 44.8527 116.553 45.201 116.553 45.6249C116.553 45.9732 116.447 46.2912 116.25 46.5487C116.053 46.8061 115.765 47.0029 115.417 47.1089C115.841 47.1695 116.189 47.3361 116.447 47.6086C116.704 47.8812 116.825 48.2295 116.825 48.6535C116.825 49.1835 116.613 49.6226 116.189 49.9558C115.765 50.2889 115.235 50.4555 114.599 50.4555H112.601V50.4403ZM113.63 45.0344V46.8061H114.297C114.66 46.8061 114.933 46.7152 115.145 46.5487C115.357 46.3821 115.447 46.1398 115.447 45.8218C115.447 45.2918 115.084 45.0192 114.372 45.0192H113.615L113.63 45.0344ZM113.63 47.6389V49.6226H114.509C114.887 49.6226 115.19 49.5318 115.402 49.3501C115.614 49.1683 115.72 48.9261 115.72 48.6081C115.72 47.9569 115.266 47.6389 114.372 47.6389H113.63Z" fill="white"/>
<path d="M123.11 50.4403H121.975L121.414 48.8503H118.961L118.416 50.4403H117.28L119.612 44.2015H120.778L123.095 50.4403H123.11ZM121.142 48.0024L120.279 45.519C120.248 45.4432 120.218 45.307 120.203 45.1252H120.188C120.157 45.2918 120.127 45.4281 120.097 45.519L119.234 48.0024H121.142Z" fill="white"/>
<path d="M127.637 44.2015L125.593 48.1841V50.4555H124.563V48.2144L122.564 44.2167H123.746L124.972 46.8969C124.972 46.8969 125.033 47.0484 125.108 47.2604C125.139 47.1695 125.184 47.0484 125.245 46.8969L126.532 44.2167H127.622L127.637 44.2015Z" fill="white"/>
<path d="M132.589 50.1829C132.119 50.4252 131.529 50.5464 130.832 50.5464C129.924 50.5464 129.197 50.2587 128.652 49.6832C128.107 49.1078 127.834 48.3658 127.834 47.427C127.834 46.4276 128.137 45.625 128.758 45.0041C129.379 44.3833 130.151 44.0804 131.09 44.0804C131.695 44.0804 132.195 44.1713 132.589 44.3379V45.3676C132.165 45.1253 131.711 44.989 131.196 44.989C130.514 44.989 129.969 45.201 129.545 45.6401C129.121 46.0793 128.909 46.6547 128.909 47.3664C128.909 48.0781 129.106 48.6081 129.5 49.017C129.893 49.4258 130.408 49.6227 131.044 49.6227C131.635 49.6227 132.15 49.4864 132.574 49.1987V50.1527L132.589 50.1829Z" fill="white"/>
<path d="M138.904 50.4403H137.768L137.208 48.8503H134.755L134.21 50.4403H133.074L135.406 44.2015H136.572L138.889 50.4403H138.904ZM136.936 48.0024L136.072 45.519C136.042 45.4432 136.012 45.307 135.997 45.1252H135.982C135.951 45.2918 135.921 45.4281 135.891 45.519L135.028 48.0024H136.936Z" fill="white"/>
<path d="M145.052 50.4403H143.916L140.933 45.8521C140.857 45.7309 140.797 45.6098 140.751 45.4887H140.721C140.751 45.625 140.751 45.9127 140.751 46.3518V50.4403H139.752V44.2015H140.963L143.84 48.6838C143.962 48.8655 144.037 49.0018 144.083 49.0623H144.098C144.068 48.8958 144.052 48.6232 144.052 48.2295V44.2015H145.052V50.4403Z" fill="white"/>
<path d="M153.396 44.2017L151.352 48.1842V50.4556H150.322V48.2145L148.323 44.2168H149.504L150.731 46.8971C150.731 46.8971 150.792 47.0485 150.867 47.2605C150.898 47.1696 150.943 47.0485 151.004 46.8971L152.291 44.2168H153.381L153.396 44.2017Z" fill="white"/>
<path d="M157.696 50.4403H154.198V44.2015H157.56V45.0798H155.228V46.8515H157.378V47.7298H155.228V49.5772H157.696V50.4555V50.4403Z" fill="white"/>
<path d="M163.632 50.4403H162.42L161.421 48.7746C161.33 48.6232 161.239 48.4869 161.164 48.3809C161.073 48.2749 160.997 48.1841 160.906 48.1084C160.815 48.0326 160.724 47.9872 160.618 47.9569C160.512 47.9266 160.391 47.9115 160.27 47.9115H159.846V50.4403H158.816V44.2015H160.876C161.164 44.2015 161.436 44.2318 161.694 44.3075C161.936 44.3832 162.148 44.4892 162.345 44.6255C162.526 44.7618 162.678 44.9435 162.769 45.1555C162.875 45.3675 162.92 45.6098 162.92 45.8975C162.92 46.1247 162.89 46.3215 162.829 46.5032C162.769 46.6849 162.678 46.8515 162.557 46.9878C162.436 47.1241 162.284 47.2604 162.118 47.3512C161.951 47.4572 161.754 47.5329 161.542 47.5935C161.648 47.6692 161.754 47.7449 161.845 47.8206C161.936 47.8964 162.012 47.9721 162.087 48.0629C162.163 48.1386 162.239 48.2295 162.314 48.3355C162.39 48.4415 162.466 48.5626 162.557 48.6989L163.662 50.4555L163.632 50.4403ZM159.846 45.0344V47.0635H160.709C160.876 47.0635 161.012 47.0332 161.148 46.9878C161.285 46.9424 161.406 46.8666 161.497 46.7758C161.603 46.6849 161.678 46.5638 161.724 46.4427C161.784 46.3064 161.8 46.1549 161.8 45.9884C161.8 45.6855 161.709 45.4584 161.512 45.2918C161.33 45.1252 161.058 45.0344 160.694 45.0344H159.831H159.846Z" fill="white"/>
<path d="M169.158 47.9115C169.158 49.6681 168.325 50.5464 166.675 50.5464C165.024 50.5464 164.282 49.6984 164.282 48.0175V44.2016H165.312V47.8055C165.312 49.0321 165.781 49.6378 166.735 49.6378C167.689 49.6378 168.113 49.0472 168.113 47.8661V44.2016H169.143V47.9267L169.158 47.9115ZM165.812 43.611C165.66 43.611 165.524 43.5656 165.418 43.4596C165.312 43.3536 165.251 43.2324 165.251 43.0961C165.251 42.9599 165.297 42.8387 165.403 42.7327C165.509 42.6419 165.63 42.5964 165.781 42.5964C165.933 42.5964 166.054 42.6419 166.16 42.7479C166.266 42.8539 166.326 42.9599 166.326 43.0961C166.326 43.2324 166.281 43.3536 166.175 43.4596C166.069 43.5656 165.948 43.611 165.796 43.611H165.812ZM167.629 43.611C167.477 43.611 167.356 43.5656 167.25 43.4747C167.144 43.3839 167.084 43.2627 167.084 43.1113C167.084 42.9599 167.129 42.8539 167.235 42.7479C167.341 42.657 167.462 42.6116 167.598 42.6116C167.75 42.6116 167.886 42.657 167.992 42.763C168.098 42.8539 168.144 42.975 168.144 43.1113C168.144 43.2476 168.098 43.3687 167.992 43.4747C167.886 43.5807 167.765 43.6261 167.614 43.6261L167.629 43.611Z" fill="white"/>
<path d="M170.34 50.1981V49.1381C170.431 49.2289 170.552 49.3046 170.689 49.3804C170.825 49.4561 170.961 49.5015 171.113 49.5621C171.264 49.6075 171.415 49.6529 171.552 49.6681C171.688 49.6832 171.839 49.7135 171.961 49.7135C172.4 49.7135 172.718 49.6378 172.93 49.5015C173.142 49.3501 173.248 49.1532 173.248 48.8655C173.248 48.7141 173.217 48.5929 173.142 48.4869C173.066 48.3809 172.975 48.2749 172.839 48.1841C172.718 48.0932 172.566 48.0024 172.385 47.9267C172.218 47.851 172.021 47.7601 171.824 47.6692C171.612 47.5632 171.415 47.4421 171.234 47.321C171.052 47.1998 170.885 47.0787 170.764 46.9424C170.628 46.8061 170.522 46.6395 170.446 46.473C170.371 46.2913 170.325 46.0944 170.325 45.8521C170.325 45.5644 170.386 45.307 170.522 45.095C170.658 44.883 170.825 44.7013 171.052 44.565C171.264 44.4287 171.521 44.3227 171.794 44.247C172.067 44.1713 172.354 44.141 172.642 44.141C173.293 44.141 173.778 44.2167 174.065 44.3681V45.3978C173.717 45.1404 173.248 45.0193 172.703 45.0193C172.551 45.0193 172.4 45.0193 172.248 45.0647C172.097 45.1101 171.961 45.1404 171.839 45.201C171.718 45.2616 171.627 45.3524 171.552 45.4584C171.476 45.5644 171.446 45.6855 171.446 45.837C171.446 45.9733 171.476 46.0944 171.537 46.2004C171.597 46.3064 171.673 46.3973 171.794 46.473C171.915 46.5487 172.036 46.6395 172.203 46.7152C172.369 46.791 172.551 46.8818 172.763 46.9727C172.975 47.0787 173.187 47.1998 173.384 47.3361C173.581 47.4572 173.747 47.5935 173.899 47.745C174.05 47.8964 174.156 48.0629 174.247 48.2447C174.338 48.4264 174.368 48.6384 174.368 48.8807C174.368 49.1986 174.308 49.4712 174.171 49.6832C174.05 49.8952 173.869 50.0769 173.657 50.2132C173.445 50.3495 173.187 50.4555 172.915 50.5161C172.627 50.5766 172.339 50.6069 172.021 50.6069C171.915 50.6069 171.794 50.6069 171.643 50.5766C171.491 50.5615 171.34 50.5312 171.173 50.5009C171.007 50.4706 170.855 50.4403 170.719 50.3949C170.583 50.3495 170.461 50.3041 170.371 50.2435L170.34 50.1981Z" fill="white"/>
<path d="M179.501 45.0798H177.714V50.4403H176.684V45.0798H174.897V44.2015H179.516V45.0798H179.501Z" fill="white"/>
<path d="M185.21 47.9115C185.21 49.6681 184.377 50.5464 182.727 50.5464C181.076 50.5464 180.334 49.6984 180.334 48.0175V44.2016H181.364V47.8055C181.364 49.0321 181.833 49.6378 182.787 49.6378C183.741 49.6378 184.165 49.0472 184.165 47.8661V44.2016H185.195V47.9267L185.21 47.9115ZM181.863 43.611C181.712 43.611 181.576 43.5656 181.47 43.4596C181.364 43.3536 181.303 43.2324 181.303 43.0961C181.303 42.9599 181.349 42.8387 181.455 42.7327C181.561 42.6419 181.682 42.5964 181.833 42.5964C181.985 42.5964 182.106 42.6419 182.212 42.7479C182.318 42.8539 182.378 42.9599 182.378 43.0961C182.378 43.2324 182.333 43.3536 182.227 43.4596C182.121 43.5656 182 43.611 181.848 43.611H181.863ZM183.681 43.611C183.529 43.611 183.408 43.5656 183.302 43.4747C183.196 43.3839 183.135 43.2627 183.135 43.1113C183.135 42.9599 183.181 42.8539 183.287 42.7479C183.393 42.657 183.514 42.6116 183.65 42.6116C183.802 42.6116 183.938 42.657 184.044 42.763C184.15 42.8539 184.195 42.975 184.195 43.1113C184.195 43.2476 184.15 43.3687 184.044 43.4747C183.938 43.5807 183.817 43.6261 183.665 43.6261L183.681 43.611Z" fill="white"/>
<path d="M96.8371 61.1463H95.7013L92.7182 56.558C92.6425 56.4369 92.582 56.3157 92.5365 56.1946H92.5062C92.5365 56.3309 92.5365 56.6186 92.5365 57.0577V61.1463H91.5371V54.9075H92.7485L95.6256 59.3897C95.7468 59.5714 95.8225 59.7077 95.8679 59.7683H95.8831C95.8528 59.6017 95.8376 59.3291 95.8376 58.9354V54.9075H96.8371V61.1463Z" fill="white"/>
<path d="M97.9727 57.5725H102.712C102.667 56.9819 102.455 56.5277 102.061 56.1794C101.683 55.8462 101.183 55.6645 100.592 55.6645C99.9109 55.6645 99.3204 55.8462 98.8358 56.1945V55.2405C99.3506 54.9377 99.9866 54.7863 100.713 54.7863C101.683 54.7863 102.44 55.074 103 55.6342C103.56 56.1945 103.833 56.9819 103.833 57.9814C103.833 58.9202 103.56 59.7076 103 60.3133C102.455 60.9342 101.713 61.237 100.804 61.237C99.8958 61.237 99.1992 60.919 98.7147 60.2982C98.2301 59.6773 97.9727 58.7688 97.9727 57.5574V57.5725ZM102.712 58.4356H99.0781C99.0781 59.0262 99.2446 59.4956 99.5626 59.8439C99.8655 60.1922 100.289 60.3739 100.819 60.3739C101.349 60.3739 101.789 60.1922 102.122 59.8439C102.455 59.4956 102.652 59.0262 102.697 58.4356H102.712Z" fill="white"/>
<path d="M107.544 61.2522C107.089 61.2522 106.681 61.1765 106.317 61.0251C105.954 60.8736 105.636 60.6616 105.378 60.3739C105.121 60.1013 104.924 59.7682 104.773 59.3745C104.636 58.9959 104.561 58.5568 104.561 58.0874C104.561 57.5877 104.636 57.1334 104.773 56.7245C104.909 56.3157 105.121 55.9674 105.393 55.6797C105.666 55.392 105.984 55.1648 106.363 55.0134C106.741 54.862 107.165 54.7711 107.635 54.7711C108.074 54.7711 108.467 54.8468 108.831 54.9983C109.194 55.1497 109.497 55.3617 109.754 55.6494C110.012 55.922 110.209 56.2551 110.345 56.6488C110.481 57.0274 110.557 57.4665 110.557 57.9208C110.557 58.5417 110.451 59.0716 110.254 59.5411C110.042 60.0105 109.754 60.3739 109.376 60.6616L111.193 61.9639H109.618L108.498 61.1008C108.346 61.1462 108.195 61.1765 108.043 61.1916C107.877 61.2219 107.71 61.2219 107.544 61.2219V61.2522ZM107.589 55.71C107.301 55.71 107.044 55.7705 106.802 55.8765C106.559 55.9825 106.363 56.1491 106.196 56.346C106.029 56.558 105.893 56.8002 105.802 57.0728C105.711 57.3605 105.666 57.6785 105.666 58.0268C105.666 58.3751 105.711 58.6931 105.802 58.9656C105.893 59.2534 106.029 59.4956 106.181 59.6925C106.347 59.8893 106.544 60.0559 106.771 60.1619C106.999 60.2679 107.256 60.3285 107.544 60.3285C107.847 60.3285 108.104 60.2831 108.346 60.1771C108.589 60.0711 108.785 59.9196 108.952 59.7228C109.118 59.5259 109.255 59.2836 109.33 58.9959C109.421 58.7082 109.467 58.3902 109.467 58.0268C109.467 57.6634 109.421 57.3302 109.33 57.0274C109.24 56.7397 109.118 56.4974 108.952 56.3005C108.785 56.1037 108.588 55.9523 108.361 55.8463C108.134 55.7403 107.862 55.6948 107.574 55.6948L107.589 55.71Z" fill="white"/>
<path d="M115.161 61.1463H111.708V54.9075H112.738V60.2831H115.161V61.1614V61.1463Z" fill="white"/>
<path d="M116.583 54.3321C116.431 54.3321 116.31 54.2866 116.204 54.1806C116.098 54.0746 116.053 53.9686 116.053 53.8172C116.053 53.6658 116.098 53.5598 116.204 53.4689C116.31 53.3781 116.431 53.3326 116.583 53.3326C116.734 53.3326 116.855 53.3781 116.961 53.4689C117.067 53.5598 117.113 53.6809 117.113 53.8172C117.113 53.9535 117.067 54.0746 116.961 54.1806C116.855 54.2866 116.734 54.3321 116.583 54.3321ZM117.128 61.1463H116.068V54.9075H117.128V61.1463Z" fill="white"/>
<path d="M123.019 54.9075L120.975 58.89V61.1614H119.945V58.9203L117.946 54.9226H119.127L120.354 57.6029C120.354 57.6029 120.415 57.7543 120.49 57.9663C120.521 57.8754 120.566 57.7543 120.627 57.6029L121.914 54.9226H123.004L123.019 54.9075Z" fill="white"/>
<path d="M128.168 54.9075L126.123 58.89V61.1614H125.094V58.9203L123.095 54.9226H124.276L125.502 57.6029C125.502 57.6029 125.563 57.7543 125.639 57.9663C125.669 57.8754 125.714 57.7543 125.775 57.6029L127.062 54.9226H128.152L128.168 54.9075Z" fill="white"/>
<path d="M133.407 61.1463H132.271L131.711 59.5563H129.258L128.713 61.1463H127.577L129.909 54.9075H131.075L133.392 61.1463H133.407ZM131.439 58.7083L130.575 56.2249C130.545 56.1492 130.515 56.0129 130.5 55.8312H130.485C130.454 55.9977 130.424 56.134 130.394 56.2249L129.531 58.7083H131.439Z" fill="white"/>
<path d="M137.646 55.7857H135.86V61.1463H134.83V55.7857H133.043V54.9075H137.661V55.7857H137.646Z" fill="white"/>
<path d="M146.141 61.1463H145.006L144.445 59.5563H141.992L141.447 61.1463H140.312L142.643 54.9075H143.809L146.126 61.1463H146.141ZM144.173 58.7083L143.31 56.2249C143.279 56.1492 143.249 56.0129 143.234 55.8312H143.219C143.189 55.9977 143.158 56.134 143.128 56.2249L142.265 58.7083H144.173Z" fill="white"/>
<path d="M151.76 60.7222C151.109 61.0705 150.382 61.2522 149.594 61.2522C148.671 61.2522 147.929 60.9645 147.353 60.389C146.778 59.8136 146.49 59.0565 146.49 58.1025C146.49 57.1485 146.808 56.3459 147.429 55.7251C148.05 55.1042 148.852 54.8014 149.806 54.8014C150.503 54.8014 151.078 54.9074 151.563 55.1042V56.1642C151.078 55.8462 150.518 55.6797 149.852 55.6797C149.186 55.6797 148.64 55.8917 148.217 56.3308C147.793 56.7699 147.581 57.3302 147.581 58.0268C147.581 58.7234 147.762 59.3139 148.126 59.7228C148.489 60.1316 148.989 60.3436 149.61 60.3436C150.034 60.3436 150.412 60.2679 150.73 60.1013V58.6174H149.413V57.7391H151.76V60.707V60.7222Z" fill="white"/>
<path d="M156.605 61.1463H153.107V54.9075H156.469V55.7857H154.137V57.5574H156.287V58.4357H154.137V60.2831H156.605V61.1614V61.1463Z" fill="white"/>
<path d="M163.011 61.1463H161.875L158.892 56.558C158.816 56.4369 158.756 56.3157 158.71 56.1946H158.68C158.71 56.3309 158.71 56.6186 158.71 57.0577V61.1463H157.711V54.9075H158.922L161.799 59.3897C161.921 59.5714 161.996 59.7077 162.042 59.7683H162.057C162.027 59.6017 162.011 59.3291 162.011 58.9354V54.9075H163.011V61.1463Z" fill="white"/>
<path d="M168.568 55.7857H166.781V61.1463H165.752V55.7857H163.965V54.9075H168.583V55.7857H168.568Z" fill="white"/>
<path d="M172.945 61.1463H169.492V54.9075H170.522V60.2831H172.945V61.1614V61.1463Z" fill="white"/>
<path d="M174.353 54.3321C174.202 54.3321 174.081 54.2866 173.975 54.1806C173.869 54.0746 173.823 53.9686 173.823 53.8172C173.823 53.6658 173.869 53.5598 173.975 53.4689C174.081 53.3781 174.202 53.3326 174.353 53.3326C174.505 53.3326 174.626 53.3781 174.732 53.4689C174.838 53.5598 174.883 53.6809 174.883 53.8172C174.883 53.9535 174.838 54.0746 174.732 54.1806C174.626 54.2866 174.505 54.3321 174.353 54.3321ZM174.898 61.1463H173.838V54.9075H174.898V61.1463Z" fill="white"/>
<path d="M180.789 54.9075L178.744 58.89V61.1614H177.715V58.9203L175.716 54.9226H176.897L178.124 57.6029C178.124 57.6029 178.184 57.7543 178.26 57.9663C178.29 57.8754 178.336 57.7543 178.396 57.6029L179.683 54.9226H180.773L180.789 54.9075Z" fill="white"/>
<path d="M182.105 54.3321C181.954 54.3321 181.833 54.2866 181.727 54.1806C181.621 54.0746 181.575 53.9686 181.575 53.8172C181.575 53.6658 181.621 53.5598 181.727 53.4689C181.833 53.3781 181.954 53.3326 182.105 53.3326C182.257 53.3326 182.378 53.3781 182.484 53.4689C182.59 53.5598 182.635 53.6809 182.635 53.8172C182.635 53.9535 182.59 54.0746 182.484 54.1806C182.378 54.2866 182.257 54.3321 182.105 54.3321ZM182.65 61.1463H181.59V54.9075H182.65V61.1463Z" fill="white"/>
<path d="M104.848 39.0228L103.833 34.7828H96.9585L95.8682 39.0228H88.3574L96.2922 15.9756H104.908L112.389 39.0228H104.848ZM100.472 20.9878H100.305C100.29 21.2452 100.214 21.6692 100.078 22.2598C99.9567 22.8504 99.3056 25.3792 98.1396 29.8463H102.546L100.941 23.5772C100.714 22.6535 100.562 21.7904 100.472 20.9878Z" fill="white"/>
<path d="M126.866 31.0274V39.0379H119.915V31.1334L112.813 15.9907H120.794L123.292 23.2441C123.459 23.7438 123.58 24.1678 123.656 24.5312C123.731 24.8946 123.807 25.258 123.883 25.6366H123.943C124.08 24.6675 124.231 23.9103 124.413 23.3652L126.866 15.9907H134.21L126.866 31.0426V31.0274Z" fill="white"/>
<path d="M152.592 39.0228L144.461 27.8929C143.825 27.0146 143.295 26.2272 142.886 25.5155H142.825C142.886 26.6512 142.916 27.9232 142.916 29.3466V39.0228H136.48V15.9756H143.037L150.836 26.5603C150.927 26.6966 151.048 26.8632 151.184 27.06C151.32 27.2569 151.457 27.4537 151.608 27.6506C151.744 27.8475 151.881 28.0595 152.002 28.2412C152.123 28.438 152.214 28.6046 152.289 28.756H152.35C152.289 28.2866 152.259 27.4689 152.259 26.318V15.9756H158.695V39.0228H152.607H152.592Z" fill="white"/>
<path d="M177.669 39.0228L176.655 34.7828H169.78L168.689 39.0228H161.179L169.113 15.9756H177.73L185.21 39.0228H177.669ZM173.293 20.9878H173.126C173.111 21.2452 173.035 21.6692 172.899 22.2598C172.763 22.8504 172.127 25.3792 170.961 29.8463H175.367L173.762 23.5772C173.535 22.6535 173.384 21.7904 173.293 20.9878Z" fill="white"/>
</g>
<path fill-rule="evenodd" clip-rule="evenodd" d="M206 71L206 7L207 7L207 71L206 71Z" fill="white"/>
<path d="M264.511 61.6488V54.5579H265.892V61.6488H264.511Z" fill="white"/>
<path d="M262.654 52.1942V61.6488H261.274V52.1942H262.654Z" fill="white"/>
<path d="M255.936 61.8058C255.487 61.8058 255.08 61.7227 254.717 61.5565C254.354 61.3872 254.066 61.1425 253.854 60.8225C253.645 60.5024 253.54 60.11 253.54 59.6453C253.54 59.2452 253.617 58.9159 253.771 58.6573C253.925 58.3988 254.132 58.1942 254.394 58.0433C254.656 57.8925 254.948 57.7787 255.271 57.7017C255.594 57.6248 255.924 57.5663 256.259 57.5263C256.684 57.4771 257.029 57.437 257.293 57.4063C257.558 57.3724 257.75 57.3186 257.87 57.2447C257.99 57.1708 258.05 57.0508 258.05 56.8846V56.8523C258.05 56.4491 257.936 56.1367 257.709 55.9151C257.484 55.6936 257.149 55.5828 256.702 55.5828C256.238 55.5828 255.871 55.6859 255.604 55.8921C255.339 56.0952 255.156 56.3214 255.054 56.5707L253.757 56.2752C253.911 55.8444 254.136 55.4966 254.431 55.2319C254.73 54.9642 255.073 54.7703 255.46 54.6502C255.848 54.5271 256.256 54.4656 256.684 54.4656C256.967 54.4656 257.267 54.4994 257.584 54.5671C257.904 54.6318 258.203 54.7518 258.48 54.9272C258.76 55.1026 258.989 55.3535 259.168 55.6797C259.346 56.0029 259.435 56.423 259.435 56.94V61.6488H258.087V60.6794H258.032C257.943 60.8579 257.809 61.0333 257.63 61.2056C257.452 61.378 257.222 61.5211 256.942 61.635C256.662 61.7488 256.327 61.8058 255.936 61.8058ZM256.236 60.6978C256.618 60.6978 256.944 60.6224 257.215 60.4716C257.489 60.3208 257.696 60.1238 257.838 59.8807C257.983 59.6345 258.055 59.3714 258.055 59.0913V58.1772C258.006 58.2265 257.91 58.2726 257.769 58.3157C257.63 58.3557 257.472 58.3911 257.293 58.4219C257.115 58.4496 256.941 58.4758 256.772 58.5004C256.602 58.5219 256.461 58.5404 256.347 58.5558C256.079 58.5896 255.834 58.6466 255.613 58.7266C255.394 58.8066 255.219 58.922 255.087 59.0728C254.957 59.2206 254.893 59.4175 254.893 59.6637C254.893 60.0054 255.019 60.2639 255.271 60.4393C255.524 60.6116 255.845 60.6978 256.236 60.6978Z" fill="white"/>
<path d="M252.345 54.5579V55.6658H248.472V54.5579H252.345ZM249.511 52.859H250.891V59.5667C250.891 59.8345 250.931 60.0361 251.011 60.1715C251.091 60.3038 251.194 60.3946 251.321 60.4439C251.45 60.49 251.59 60.5131 251.741 60.5131C251.851 60.5131 251.948 60.5054 252.031 60.49C252.115 60.4747 252.179 60.4623 252.225 60.4531L252.475 61.5934C252.395 61.6242 252.281 61.6549 252.133 61.6857C251.985 61.7196 251.801 61.738 251.579 61.7411C251.216 61.7473 250.877 61.6826 250.563 61.5472C250.25 61.4118 249.996 61.2025 249.802 60.9194C249.608 60.6362 249.511 60.2808 249.511 59.853V52.859Z" fill="white"/>
<path d="M243.627 61.6488V54.5578H244.962V55.6843H245.035C245.165 55.3026 245.392 55.0026 245.719 54.784C246.048 54.5625 246.42 54.4517 246.836 54.4517C246.922 54.4517 247.024 54.4547 247.141 54.4609C247.261 54.4671 247.354 54.4747 247.422 54.484V55.8043C247.367 55.7889 247.268 55.772 247.127 55.7535C246.985 55.732 246.844 55.7212 246.702 55.7212C246.376 55.7212 246.085 55.7904 245.83 55.9289C245.577 56.0644 245.377 56.2536 245.229 56.4968C245.082 56.7368 245.008 57.0107 245.008 57.3185V61.6488H243.627Z" fill="white"/>
<path d="M238.781 61.7919C238.117 61.7919 237.537 61.6396 237.041 61.3349C236.546 61.0302 236.161 60.604 235.887 60.0561C235.613 59.5083 235.476 58.8682 235.476 58.1357C235.476 57.4001 235.613 56.7569 235.887 56.206C236.161 55.6551 236.546 55.2273 237.041 54.9226C237.537 54.6179 238.117 54.4656 238.781 54.4656C239.446 54.4656 240.026 54.6179 240.522 54.9226C241.017 55.2273 241.402 55.6551 241.676 56.206C241.95 56.7569 242.087 57.4001 242.087 58.1357C242.087 58.8682 241.95 59.5083 241.676 60.0561C241.402 60.604 241.017 61.0302 240.522 61.3349C240.026 61.6396 239.446 61.7919 238.781 61.7919ZM238.786 60.6332C239.217 60.6332 239.574 60.5193 239.857 60.2916C240.14 60.0638 240.35 59.7607 240.485 59.3821C240.623 59.0036 240.693 58.5866 240.693 58.1311C240.693 57.6786 240.623 57.2632 240.485 56.8846C240.35 56.503 240.14 56.1968 239.857 55.9659C239.574 55.7351 239.217 55.6197 238.786 55.6197C238.352 55.6197 237.992 55.7351 237.706 55.9659C237.423 56.1968 237.212 56.503 237.073 56.8846C236.938 57.2632 236.87 57.6786 236.87 58.1311C236.87 58.5866 236.938 59.0036 237.073 59.3821C237.212 59.7607 237.423 60.0638 237.706 60.2916C237.992 60.5193 238.352 60.6332 238.786 60.6332Z" fill="white"/>
<path d="M227.679 61.6488V52.1942H231.049C231.784 52.1942 232.394 52.3281 232.877 52.5958C233.36 52.8636 233.722 53.2298 233.962 53.6946C234.202 54.1562 234.322 54.6763 234.322 55.2549C234.322 55.8366 234.2 56.3598 233.957 56.8245C233.717 57.2862 233.354 57.6524 232.868 57.9233C232.384 58.191 231.777 58.3249 231.044 58.3249H228.727V57.1154H230.915C231.38 57.1154 231.757 57.0354 232.046 56.8753C232.335 56.7122 232.548 56.4906 232.683 56.2105C232.818 55.9305 232.886 55.6119 232.886 55.2549C232.886 54.8979 232.818 54.5809 232.683 54.3039C232.548 54.027 232.334 53.81 232.041 53.653C231.752 53.4961 231.37 53.4176 230.896 53.4176H229.105V61.6488H227.679Z" fill="white"/>
<path d="M282.577 43.6487V36.5578H283.911V37.6843H283.985C284.114 37.3026 284.342 37.0026 284.668 36.784C284.997 36.5625 285.37 36.4517 285.785 36.4517C285.871 36.4517 285.973 36.4547 286.09 36.4609C286.21 36.467 286.304 36.4747 286.371 36.484V37.8043C286.316 37.7889 286.218 37.772 286.076 37.7535C285.934 37.732 285.793 37.7212 285.651 37.7212C285.325 37.7212 285.034 37.7904 284.779 37.9289C284.526 38.0643 284.326 38.2536 284.179 38.4968C284.031 38.7368 283.957 39.0107 283.957 39.3185V43.6487H282.577Z" fill="white"/>
<path d="M277.671 36.4148C278.369 36.4148 278.971 36.5656 279.476 36.8672C279.98 37.1657 280.368 37.5889 280.639 38.1367C280.91 38.6815 281.045 39.3216 281.045 40.0572C281.045 40.7835 280.91 41.4237 280.639 41.9776C280.368 42.5316 279.987 42.964 279.494 43.2749C279.005 43.5857 278.431 43.7411 277.772 43.7411C277.369 43.7411 276.98 43.675 276.604 43.5426C276.229 43.4103 275.892 43.2026 275.593 42.9194C275.298 42.6363 275.062 42.2685 274.887 41.8161C274.715 41.3637 274.628 40.8174 274.628 40.1772V39.6879H280.27V40.722H275.986C275.986 41.0851 276.058 41.4083 276.203 41.6914C276.35 41.9715 276.557 42.1931 276.821 42.3562C277.089 42.5193 277.401 42.6009 277.758 42.6009C278.152 42.6009 278.491 42.507 278.774 42.3193C279.06 42.1285 279.282 41.8807 279.439 41.576C279.596 41.2713 279.674 40.9436 279.674 40.5927V39.7848C279.674 39.3078 279.59 38.9046 279.42 38.5753C279.254 38.2429 279.02 37.9906 278.719 37.8182C278.417 37.6428 278.065 37.5551 277.661 37.5551C277.4 37.5551 277.16 37.5935 276.941 37.6705C276.726 37.7443 276.54 37.8567 276.383 38.0075C276.229 38.1552 276.109 38.3414 276.023 38.5661L274.716 38.3306C274.821 37.9459 275.007 37.6105 275.275 37.3242C275.546 37.0349 275.884 36.8118 276.29 36.6549C276.697 36.4948 277.157 36.4148 277.671 36.4148Z" fill="white"/>
<path d="M273.09 34.1942V43.6488H271.709V34.1942H273.09Z" fill="white"/>
<path d="M270.03 36.5579V37.6658H266.157V36.5579H270.03ZM267.195 34.859H268.576V41.5667C268.576 41.8345 268.616 42.0361 268.696 42.1715C268.776 42.3038 268.879 42.3946 269.005 42.4439C269.134 42.49 269.274 42.5131 269.425 42.5131C269.536 42.5131 269.633 42.5054 269.716 42.49C269.799 42.4747 269.864 42.4623 269.91 42.4531L270.159 43.5934C270.079 43.6242 269.965 43.6549 269.818 43.6857C269.67 43.7196 269.485 43.738 269.264 43.7411C268.9 43.7473 268.562 43.6826 268.248 43.5472C267.934 43.4118 267.68 43.2025 267.486 42.9194C267.292 42.6362 267.195 42.2808 267.195 41.853V34.859Z" fill="white"/>
<path d="M261.814 36.4148C262.513 36.4148 263.115 36.5656 263.619 36.8672C264.124 37.1657 264.512 37.5889 264.783 38.1367C265.053 38.6815 265.189 39.3216 265.189 40.0572C265.189 40.7835 265.053 41.4237 264.783 41.9776C264.512 42.5316 264.13 42.964 263.638 43.2749C263.148 43.5857 262.574 43.7411 261.916 43.7411C261.513 43.7411 261.123 43.675 260.748 43.5426C260.372 43.4103 260.035 43.2026 259.737 42.9194C259.441 42.6363 259.206 42.2685 259.03 41.8161C258.858 41.3637 258.772 40.8174 258.772 40.1772V39.6879H264.413V40.722H260.129C260.129 41.0851 260.202 41.4083 260.346 41.6914C260.494 41.9715 260.7 42.1931 260.965 42.3562C261.233 42.5193 261.545 42.6009 261.902 42.6009C262.296 42.6009 262.634 42.507 262.918 42.3193C263.204 42.1285 263.425 41.8807 263.582 41.576C263.739 41.2713 263.818 40.9436 263.818 40.5927V39.7848C263.818 39.3078 263.733 38.9046 263.564 38.5753C263.398 38.2429 263.164 37.9906 262.862 37.8182C262.561 37.6428 262.208 37.5551 261.805 37.5551C261.543 37.5551 261.303 37.5935 261.085 37.6705C260.869 37.7443 260.683 37.8567 260.526 38.0075C260.372 38.1552 260.252 38.3414 260.166 38.5661L258.86 38.3306C258.964 37.9459 259.151 37.6105 259.418 37.3242C259.689 37.0349 260.028 36.8118 260.434 36.6549C260.84 36.4948 261.3 36.4148 261.814 36.4148Z" fill="white"/>
<path d="M247.601 43.6488V36.5579H248.926V37.712H249.014C249.161 37.3212 249.403 37.0165 249.739 36.798C250.074 36.5764 250.476 36.4656 250.943 36.4656C251.417 36.4656 251.814 36.5764 252.134 36.798C252.458 37.0196 252.696 37.3242 252.85 37.712H252.924C253.093 37.3335 253.362 37.0319 253.732 36.8072C254.101 36.5794 254.541 36.4656 255.052 36.4656C255.695 36.4656 256.22 36.6672 256.626 37.0703C257.036 37.4735 257.24 38.0813 257.24 38.8938V43.6488H255.86V39.0231C255.86 38.543 255.729 38.1952 255.468 37.9798C255.206 37.7643 254.894 37.6566 254.53 37.6566C254.081 37.6566 253.732 37.7951 253.482 38.0721C253.233 38.346 253.109 38.6984 253.109 39.1293V43.6488H251.733V38.9354C251.733 38.5507 251.613 38.2414 251.373 38.0075C251.133 37.7736 250.82 37.6566 250.436 37.6566C250.174 37.6566 249.932 37.7259 249.711 37.8644C249.492 37.9998 249.315 38.1891 249.18 38.4322C249.048 38.6753 248.981 38.9569 248.981 39.277V43.6488H247.601Z" fill="white"/>
<path d="M242.118 43.7873C241.545 43.7873 241.034 43.6411 240.585 43.3487C240.139 43.0532 239.788 42.6331 239.532 42.0884C239.28 41.5406 239.154 40.8835 239.154 40.1172C239.154 39.3508 239.282 38.6953 239.537 38.1505C239.795 37.6058 240.149 37.1888 240.599 36.8995C241.048 36.6102 241.557 36.4655 242.127 36.4655C242.567 36.4655 242.921 36.5394 243.189 36.6871C243.459 36.8318 243.669 37.001 243.816 37.1949C243.967 37.3888 244.084 37.5596 244.167 37.7074H244.25V34.1942H245.631V43.6488H244.283V42.5454H244.167C244.084 42.6962 243.964 42.8686 243.807 43.0625C243.653 43.2564 243.441 43.4256 243.17 43.5703C242.899 43.7149 242.548 43.7873 242.118 43.7873ZM242.422 42.6101C242.819 42.6101 243.155 42.5054 243.429 42.2961C243.706 42.0838 243.915 41.7899 244.057 41.4144C244.201 41.0389 244.273 40.6019 244.273 40.1033C244.273 39.6109 244.203 39.18 244.061 38.8107C243.92 38.4414 243.712 38.1536 243.438 37.9474C243.164 37.7412 242.825 37.6381 242.422 37.6381C242.007 37.6381 241.661 37.7458 241.384 37.9613C241.107 38.1767 240.897 38.4706 240.756 38.843C240.617 39.2154 240.548 39.6355 240.548 40.1033C240.548 40.5773 240.619 41.0035 240.76 41.3821C240.902 41.7606 241.111 42.0607 241.388 42.2823C241.668 42.5008 242.013 42.6101 242.422 42.6101Z" fill="white"/>
<path d="M236.226 43.6488V36.5579H237.607V43.6488H236.226ZM236.923 35.4638C236.683 35.4638 236.477 35.3837 236.305 35.2237C236.135 35.0606 236.051 34.8667 236.051 34.642C236.051 34.4143 236.135 34.2204 236.305 34.0603C236.477 33.8972 236.683 33.8157 236.923 33.8157C237.163 33.8157 237.368 33.8972 237.537 34.0603C237.71 34.2204 237.796 34.4143 237.796 34.642C237.796 34.8667 237.71 35.0606 237.537 35.2237C237.368 35.3837 237.163 35.4638 236.923 35.4638Z" fill="white"/>
<path d="M228.671 34.1942L230.933 37.892H231.007L233.269 34.1942H234.922L231.977 38.9215L234.94 43.6488H233.278L231.007 40.0017H230.933L228.662 43.6488H227L230.015 38.9215L227.018 34.1942H228.671Z" fill="white"/>
<path d="M272.29 21.4386V25.6488H270.91V18.5579H272.235V19.712H272.322C272.485 19.3366 272.741 19.0349 273.089 18.8072C273.439 18.5794 273.881 18.4656 274.414 18.4656C274.897 18.4656 275.32 18.5671 275.683 18.7703C276.046 18.9703 276.328 19.2688 276.528 19.6659C276.728 20.0629 276.828 20.5538 276.828 21.1385V25.6488H275.448V21.3047C275.448 20.7907 275.314 20.3891 275.046 20.0998C274.778 19.8074 274.41 19.6612 273.943 19.6612C273.623 19.6612 273.338 19.7305 273.089 19.869C272.842 20.0075 272.647 20.2106 272.502 20.4784C272.361 20.743 272.29 21.0631 272.29 21.4386Z" fill="white"/>
<path d="M266.064 25.7919C265.399 25.7919 264.819 25.6396 264.323 25.3349C263.828 25.0302 263.443 24.604 263.169 24.0561C262.895 23.5083 262.758 22.8682 262.758 22.1357C262.758 21.4001 262.895 20.7569 263.169 20.206C263.443 19.6551 263.828 19.2273 264.323 18.9226C264.819 18.6179 265.399 18.4656 266.064 18.4656C266.728 18.4656 267.309 18.6179 267.804 18.9226C268.3 19.2273 268.684 19.6551 268.958 20.206C269.232 20.7569 269.369 21.4001 269.369 22.1357C269.369 22.8682 269.232 23.5083 268.958 24.0561C268.684 24.604 268.3 25.0302 267.804 25.3349C267.309 25.6396 266.728 25.7919 266.064 25.7919ZM266.068 24.6332C266.499 24.6332 266.856 24.5193 267.139 24.2916C267.422 24.0638 267.632 23.7607 267.767 23.3821C267.906 23.0036 267.975 22.5866 267.975 22.1311C267.975 21.6786 267.906 21.2632 267.767 20.8846C267.632 20.503 267.422 20.1968 267.139 19.9659C266.856 19.7351 266.499 19.6197 266.068 19.6197C265.634 19.6197 265.274 19.7351 264.988 19.9659C264.705 20.1968 264.494 20.503 264.356 20.8846C264.22 21.2632 264.152 21.6786 264.152 22.1311C264.152 22.5866 264.22 23.0036 264.356 23.3821C264.494 23.7607 264.705 24.0638 264.988 24.2916C265.274 24.5193 265.634 24.6332 266.068 24.6332Z" fill="white"/>
<path d="M258.341 25.6487V18.5578H259.675V19.6843H259.749C259.879 19.3026 260.106 19.0026 260.433 18.784C260.762 18.5625 261.134 18.4517 261.55 18.4517C261.636 18.4517 261.737 18.4547 261.854 18.4609C261.974 18.467 262.068 18.4747 262.136 18.484V19.8043C262.081 19.7889 261.982 19.772 261.841 19.7535C261.699 19.732 261.557 19.7212 261.416 19.7212C261.09 19.7212 260.799 19.7904 260.543 19.9289C260.291 20.0643 260.091 20.2536 259.943 20.4968C259.796 20.7368 259.722 21.0107 259.722 21.3185V25.6487H258.341Z" fill="white"/>
<path d="M256.814 18.5579V19.6658H252.941V18.5579H256.814ZM253.98 16.859H255.36V23.5668C255.36 23.8345 255.4 24.0361 255.48 24.1715C255.56 24.3038 255.663 24.3946 255.789 24.4439C255.919 24.49 256.059 24.5131 256.209 24.5131C256.32 24.5131 256.417 24.5054 256.5 24.49C256.583 24.4747 256.648 24.4623 256.694 24.4531L256.943 25.5934C256.863 25.6242 256.75 25.6549 256.602 25.6857C256.454 25.7196 256.269 25.738 256.048 25.7411C255.685 25.7473 255.346 25.6826 255.032 25.5472C254.718 25.4118 254.464 25.2025 254.27 24.9194C254.077 24.6362 253.98 24.2808 253.98 23.853V16.859Z" fill="white"/>
<path d="M247.538 23.2436L247.528 21.5586H247.768L250.594 18.5579H252.246L249.024 21.974H248.807L247.538 23.2436ZM246.268 25.6488V16.1942H247.648V25.6488H246.268ZM250.746 25.6488L248.207 22.2787L249.158 21.3139L252.44 25.6488H250.746Z" fill="white"/>
<path d="M241.694 25.7919C240.996 25.7919 240.394 25.6427 239.889 25.3441C239.388 25.0425 239 24.6193 238.726 24.0746C238.455 23.5268 238.32 22.8851 238.32 22.1495C238.32 21.4232 238.455 20.783 238.726 20.2291C239 19.6751 239.382 19.2427 239.871 18.9318C240.363 18.621 240.939 18.4656 241.598 18.4656C241.998 18.4656 242.385 18.5317 242.761 18.6641C243.136 18.7964 243.473 19.0042 243.772 19.2873C244.07 19.5705 244.306 19.9382 244.478 20.3906C244.651 20.84 244.737 21.3863 244.737 22.0295V22.5188H239.1V21.4848H243.384C243.384 21.1216 243.31 20.8 243.163 20.5199C243.015 20.2368 242.807 20.0136 242.539 19.8505C242.275 19.6874 241.964 19.6058 241.607 19.6058C241.219 19.6058 240.88 19.7013 240.591 19.8921C240.305 20.0798 240.083 20.326 239.926 20.6307C239.772 20.9323 239.696 21.2601 239.696 21.614V22.4219C239.696 22.8959 239.779 23.299 239.945 23.6314C240.114 23.9638 240.35 24.2177 240.651 24.3931C240.953 24.5655 241.305 24.6517 241.708 24.6517C241.97 24.6517 242.208 24.6147 242.424 24.5409C242.639 24.4639 242.826 24.35 242.982 24.1992C243.139 24.0484 243.259 23.8622 243.343 23.6406L244.649 23.8761C244.544 24.2608 244.357 24.5978 244.086 24.8871C243.818 25.1733 243.481 25.3964 243.075 25.5565C242.672 25.7134 242.212 25.7919 241.694 25.7919Z" fill="white"/>
<path d="M236.781 16.1942V25.6488H235.401V16.1942H236.781Z" fill="white"/>
<path d="M227.679 25.6488V16.1942H233.606V17.4222H229.105V20.3029H233.297V21.5262H229.105V24.4208H233.662V25.6488H227.679Z" fill="white"/>
<defs>
<clipPath id="clip0_6411_2031">
<rect width="186" height="78" fill="white"/>
</clipPath>
</defs>
</svg>
